{"title":"Formula 1 2014-F1 Show Malaysia Williams Speical 28.03.14","uid":9842617,"size":1806088327,"categoryP":"video","categoryS":"hd___tv_shows","magnet":"?xt=urn:btih:2c73702bd39efcc70379df9c221a6d87f562df35&amp;dn=Formula+1+2014-F1+Show+Malaysia+Williams+Speical+28.03.14&amp;tr=udp%3A%2F%2Ftracker.openbittorrent.com%3A80&amp;tr=udp%3A%2F%2Fopen.demonii.com%3A1337&amp;tr=udp%3A%2F%2Ftracker.coppersurfer.tk%3A6969&amp;tr=udp%3A%2F%2Fexodus.desync.com%3A6969","seeders":4,"leechers":0,"uploader":"tbkf1","files":3,"time":1396014042,"description":"The F1 Show 28.03.14 (Malaysia)\n\nCoverage of the SKY SPORTS F1 SHOW For Malaysia Williams Special 28.03.14\n\n\nMAIN FILE DETAILS:\n\nAir Date: 28.03.14\nResolution: 1280x720\nAudio: AC3 5.1 Channel Dolby Digital \nVideo: H.264 Profile 4.0 High\nContainer: MKV\nRunning Time: 1:05:27\nBroadcast Time: 10.00-11.10\nSource: Encoded From VU+ Solo2 PVR\nBroadcast: Sky Sports F1 HD (UK)\nFilesize: 1.68GB\n\n\nI will be providing the entire F1 Season from Sky Sports F1 HD.. Please visit my blog below for full details of everything you need\nfor the forthcoming F1 2014 Season including links to all torrents and fileshare downloads.\n\nFormula 1 Blog: See .txt file\n\nTo reduce SKY's LIVE audio sync errors during add-breaks,the commercials have been left intact. Removing them can cause considerable encoding and playback problems as thelive stream switches from Dolby Digital to standard stereo output and back during such breaks, this plays havoc with encoding the audio feed as pure 6 channel AC3 Digital.\n\n\nThese video files will play very fluidly with the standard media players such as VLC, WMP, KM Player, WMC, MP-HC.\n\nI welcome any comments or suggestions...\n\n\nFOR ALL YOUR LATEST F1 NEWS, GOSSIP, TRACK GUIDES, DISCUSSION &amp; FULL TORRENT &amp; FILESHARE LINKS INFORMATION IN MORE DETAIL, AND ACCESS TO MUCH MORE, PLEASE KEEP YOUR EYE ON MY BLOG \n\n\n**For anyone having mkv playback issues on Windows 7 or 8, I do recommend installing the Shark Codec Packs which are available free on the link below: http://shark007.net/ (*NOTE: sharks default settings work well for WMP)\n\nEXTENDED FILE DETAILS:\n\nFormat                                   : AVC\nFormat/Info                              : Advanced Video Codec\nFormat profile                           : &lt;a class=&quot;__cf_email__&quot; href=&quot;/cdn-cgi/l/email-protection&quot; data-cfemail=&quot;f7bf9e909fb7bbc3d9c7&quot;&gt;[email&amp;#160;protected]&lt;/a&gt;&lt;script cf-hash='f9e31' type=&quot;text/javascript&quot;&gt;\n/* &lt;![CDATA[ */!function(){try{var t=&quot;currentScript&quot;in document?document.currentScript:function(){for(var t=document.getElementsByTagName(&quot;script&quot;),e=t.length;e--;)if(t[e].getAttribute(&quot;cf-hash&quot;))return t[e]}();if(t&amp;&amp;t.previousSibling){var e,r,n,i,c=t.previousSibling,a=c.getAttribute(&quot;data-cfemail&quot;);if(a){for(e=&quot;&quot;,r=parseInt(a.substr(0,2),16),n=2;a.length-n;n+=2)i=parseInt(a.substr(n,2),16)^r,e+=String.fromCharCode(i);e=document.createTextNode(e),c.parentNode.replaceChild(e,c)}}}catch(u){}}();/* ]]&gt; */&lt;/script&gt;\nFormat settings, CABAC                   : Yes\nFormat settings, ReFrames                : 5 frames\nCodec ID                                 : V_MPEG4/ISO/AVC\nDuration                                 : 1h 5mn\nBit rate                                 : 3 221 Kbps\nWidth                                    : 1 280 pixels\nHeight                                   : 720 pixels\nDisplay aspect ratio                     : 16:9\nOriginal display aspect ratio            : 16:9\nFrame rate mode                          : Constant\nFrame rate                               : 25.000 fps\nColor space                              : YUV\nChroma subsampling                       : 4:2:0\nBit depth                                : 8 bits\nScan type                                : Progressive\nBits/(Pixel*Frame)                       : 0.140\nStream size                              : 1.47 GiB (88%)\nLanguage                                 : English\nDefault                                  : Yes\nForced                                   : No\nColor primaries                          : BT.709\nTransfer characteristics                 : BT.709\nMatrix coefficients                      : BT.709\n\nAudio\nID                                       : 2\nFormat                                   : AC-3\nFormat/Info                              : Audio Coding 3\nMode extension                           : CM (complete main)\nFormat settings, Endianness              : Big\nCodec ID                                 : A_AC3\nDuration                                 : 1h 5mn\nBit rate mode                            : Constant\nBit rate                                 : 384 Kbps\nChannel(s)                               : 6 channels\nChannel positions                        : Front: L C R, Side: L R, LFE\nSampling rate                            : 48.0 KHz\nBit depth                                : 16 bits\nCompression mode                         : Lossy\nStream size                              : 180 MiB (10%)\nLanguage                                 : English\nDefault                                  : Yes\nForced                                   : No\n\n","torrent":{"xt":"urn:btih:2c73702bd39efcc70379df9c221a6d87f562df35","amp;dn":"Formula+1+2014-F1+Show+Malaysia+Williams+Speical+28.03.14","amp;tr":["udp%3A%2F%2Ftracker.openbittorrent.com%3A80","udp%3A%2F%2Fopen.demonii.com%3A1337","udp%3A%2F%2Ftracker.coppersurfer.tk%3A6969","udp%3A%2F%2Fexodus.desync.com%3A6969"],"infoHash":"2c73702bd39efcc70379df9c221a6d87f562df35","infoHashBuffer":{"type":"Buffer","data":[44,115,112,43,211,158,252,199,3,121,223,156,34,26,109,135,245,98,223,53]},"announce":[],"urlList":[]}}